<?xml version="1.0" encoding="UTF-8" standalone="no"?>
<!DOCTYPE svg PUBLIC "-//W3C//DTD SVG 1.1//EN"
 "http://www.w3.org/Graphics/SVG/1.1/DTD/svg11.dtd">
<!-- Generated by graphviz version 2.47.0 (20210316.0004)
 -->
<!-- Title: dependencies Pages: 1 -->
<svg width="634pt" height="211pt"
 viewBox="0.00 0.00 634.00 211.00" xmlns="http://www.w3.org/2000/svg" xmlns:xlink="http://www.w3.org/1999/xlink">
<g id="graph0" class="graph" transform="scale(1 1) rotate(0) translate(4 207)">
<title>dependencies</title>
<polygon fill="white" stroke="transparent" points="-4,4 -4,-207 630,-207 630,4 -4,4"/>
<text text-anchor="start" x="292.01" y="-42.4" font-family="Times-12" font-weight="bold" font-size="14.00">Legend</text>
<polygon fill="#ffffb3" stroke="transparent" points="79,-10 79,-30 99,-30 99,-10 79,-10"/>
<text text-anchor="start" x="102.63" y="-15.4" font-family="Times-12" font-size="14.00"> &#160;Declarations</text>
<polygon fill="#8dd3c7" stroke="transparent" points="192,-10 192,-30 212,-30 212,-10 192,-10"/>
<text text-anchor="start" x="215.73" y="-15.4" font-family="Times-12" font-size="14.00"> &#160;Module</text>
<polygon fill="#80b1d3" stroke="transparent" points="278,-10 278,-30 298,-30 298,-10 278,-10"/>
<text text-anchor="start" x="301.78" y="-15.4" font-family="Times-12" font-size="14.00"> &#160;Bootstrap</text>
<polygon fill="#fdb462" stroke="transparent" points="375,-10 375,-30 395,-30 395,-10 375,-10"/>
<text text-anchor="start" x="398.67" y="-15.4" font-family="Times-12" font-size="14.00"> &#160;Providers</text>
<polygon fill="#fb8072" stroke="transparent" points="471,-10 471,-30 491,-30 491,-10 471,-10"/>
<text text-anchor="start" x="494.73" y="-15.4" font-family="Times-12" font-size="14.00"> &#160;Exports</text>
<g id="clust1" class="cluster">
<title>cluster_StatefulModule</title>
<polygon fill="none" stroke="black" stroke-dasharray="1,5" points="8,-70 8,-195 618,-195 618,-70 8,-70"/>
</g>
<g id="clust3" class="cluster">
<title>cluster_StatefulModule_imports</title>
<polygon fill="none" stroke="black" points="502,-78 502,-130 610,-130 610,-78 502,-78"/>
</g>
<g id="clust6" class="cluster">
<title>cluster_StatefulModule_providers</title>
<polygon fill="none" stroke="black" points="16,-78 16,-130 494,-130 494,-78 16,-78"/>
</g>
<!-- UsersModule -->
<g id="node1" class="node">
<title>UsersModule</title>
<polygon fill="#8dd3c7" stroke="black" points="601.92,-122 598.92,-126 577.92,-126 574.92,-122 510.08,-122 510.08,-86 601.92,-86 601.92,-122"/>
<text text-anchor="middle" x="556" y="-99.8" font-family="Times,serif" font-size="14.00">UsersModule</text>
</g>
<!-- StatefulModule -->
<g id="node2" class="node">
<title>StatefulModule</title>
<polygon fill="#8dd3c7" stroke="black" points="391.59,-187 388.59,-191 367.59,-191 364.59,-187 288.41,-187 288.41,-151 391.59,-151 391.59,-187"/>
<text text-anchor="middle" x="340" y="-164.8" font-family="Times,serif" font-size="14.00">StatefulModule</text>
</g>
<!-- UsersModule&#45;&gt;StatefulModule -->
<g id="edge1" class="edge">
<title>UsersModule&#45;&gt;StatefulModule</title>
<path fill="none" stroke="black" d="M556,-122.11C556,-141.34 556,-169 556,-169 556,-169 401.74,-169 401.74,-169"/>
<polygon fill="black" stroke="black" points="401.74,-165.5 391.74,-169 401.74,-172.5 401.74,-165.5"/>
</g>
<!-- LocalStrategy -->
<g id="node3" class="node">
<title>LocalStrategy</title>
<ellipse fill="#fdb462" stroke="black" cx="421" cy="-104" rx="65.41" ry="18"/>
<text text-anchor="middle" x="421" y="-99.8" font-family="Times,serif" font-size="14.00">LocalStrategy</text>
</g>
<!-- LocalStrategy&#45;&gt;StatefulModule -->
<g id="edge2" class="edge">
<title>LocalStrategy&#45;&gt;StatefulModule</title>
<path fill="none" stroke="black" d="M373.67,-116.53C373.67,-116.53 373.67,-140.85 373.67,-140.85"/>
<polygon fill="black" stroke="black" points="370.17,-140.85 373.67,-150.85 377.17,-140.85 370.17,-140.85"/>
</g>
<!-- SessionSerializer -->
<g id="node4" class="node">
<title>SessionSerializer</title>
<ellipse fill="#fdb462" stroke="black" cx="260" cy="-104" rx="77.58" ry="18"/>
<text text-anchor="middle" x="260" y="-99.8" font-family="Times,serif" font-size="14.00">SessionSerializer</text>
</g>
<!-- SessionSerializer&#45;&gt;StatefulModule -->
<g id="edge3" class="edge">
<title>SessionSerializer&#45;&gt;StatefulModule</title>
<path fill="none" stroke="black" d="M313,-117.15C313,-117.15 313,-140.69 313,-140.69"/>
<polygon fill="black" stroke="black" points="309.5,-140.69 313,-150.69 316.5,-140.69 309.5,-140.69"/>
</g>
<!-- StatefulService -->
<g id="node5" class="node">
<title>StatefulService</title>
<ellipse fill="#fdb462" stroke="black" cx="94" cy="-104" rx="70.06" ry="18"/>
<text text-anchor="middle" x="94" y="-99.8" font-family="Times,serif" font-size="14.00">StatefulService</text>
</g>
<!-- StatefulService&#45;&gt;StatefulModule -->
<g id="edge4" class="edge">
<title>StatefulService&#45;&gt;StatefulModule</title>
<path fill="none" stroke="black" d="M94,-122.11C94,-141.34 94,-169 94,-169 94,-169 278.43,-169 278.43,-169"/>
<polygon fill="black" stroke="black" points="278.43,-172.5 288.43,-169 278.43,-165.5 278.43,-172.5"/>
</g>
</g>
</svg>
