<?xml version="1.0" encoding="UTF-8" standalone="no"?>
<!DOCTYPE svg PUBLIC "-//W3C//DTD SVG 1.1//EN"
 "http://www.w3.org/Graphics/SVG/1.1/DTD/svg11.dtd">
<!-- Generated by graphviz version 2.47.0 (20210316.0004)
 -->
<!-- Title: dependencies Pages: 1 -->
<svg width="600pt" height="211pt"
 viewBox="0.00 0.00 600.00 211.00" xmlns="http://www.w3.org/2000/svg" xmlns:xlink="http://www.w3.org/1999/xlink">
<g id="graph0" class="graph" transform="scale(1 1) rotate(0) translate(4 207)">
<title>dependencies</title>
<polygon fill="white" stroke="transparent" points="-4,4 -4,-207 596,-207 596,4 -4,4"/>
<text text-anchor="start" x="275.01" y="-42.4" font-family="Times-12" font-weight="bold" font-size="14.00">Legend</text>
<polygon fill="#ffffb3" stroke="transparent" points="62,-10 62,-30 82,-30 82,-10 62,-10"/>
<text text-anchor="start" x="85.63" y="-15.4" font-family="Times-12" font-size="14.00"> &#160;Declarations</text>
<polygon fill="#8dd3c7" stroke="transparent" points="175,-10 175,-30 195,-30 195,-10 175,-10"/>
<text text-anchor="start" x="198.73" y="-15.4" font-family="Times-12" font-size="14.00"> &#160;Module</text>
<polygon fill="#80b1d3" stroke="transparent" points="261,-10 261,-30 281,-30 281,-10 261,-10"/>
<text text-anchor="start" x="284.78" y="-15.4" font-family="Times-12" font-size="14.00"> &#160;Bootstrap</text>
<polygon fill="#fdb462" stroke="transparent" points="358,-10 358,-30 378,-30 378,-10 358,-10"/>
<text text-anchor="start" x="381.67" y="-15.4" font-family="Times-12" font-size="14.00"> &#160;Providers</text>
<polygon fill="#fb8072" stroke="transparent" points="454,-10 454,-30 474,-30 474,-10 454,-10"/>
<text text-anchor="start" x="477.73" y="-15.4" font-family="Times-12" font-size="14.00"> &#160;Exports</text>
<g id="clust1" class="cluster">
<title>cluster_StatelessModule</title>
<polygon fill="none" stroke="black" stroke-dasharray="1,5" points="8,-70 8,-195 584,-195 584,-70 8,-70"/>
</g>
<g id="clust6" class="cluster">
<title>cluster_StatelessModule_providers</title>
<polygon fill="none" stroke="black" points="132,-78 132,-130 576,-130 576,-78 132,-78"/>
</g>
<g id="clust3" class="cluster">
<title>cluster_StatelessModule_imports</title>
<polygon fill="none" stroke="black" points="16,-78 16,-130 124,-130 124,-78 16,-78"/>
</g>
<!-- UsersModule -->
<g id="node1" class="node">
<title>UsersModule</title>
<polygon fill="#8dd3c7" stroke="black" points="115.92,-122 112.92,-126 91.92,-126 88.92,-122 24.08,-122 24.08,-86 115.92,-86 115.92,-122"/>
<text text-anchor="middle" x="70" y="-99.8" font-family="Times,serif" font-size="14.00">UsersModule</text>
</g>
<!-- StatelessModule -->
<g id="node2" class="node">
<title>StatelessModule</title>
<polygon fill="#8dd3c7" stroke="black" points="346.04,-187 343.04,-191 322.04,-191 319.04,-187 237.96,-187 237.96,-151 346.04,-151 346.04,-187"/>
<text text-anchor="middle" x="292" y="-164.8" font-family="Times,serif" font-size="14.00">StatelessModule</text>
</g>
<!-- UsersModule&#45;&gt;StatelessModule -->
<g id="edge1" class="edge">
<title>UsersModule&#45;&gt;StatelessModule</title>
<path fill="none" stroke="black" d="M70,-122.11C70,-141.34 70,-169 70,-169 70,-169 227.69,-169 227.69,-169"/>
<polygon fill="black" stroke="black" points="227.69,-172.5 237.69,-169 227.69,-165.5 227.69,-172.5"/>
</g>
<!-- JwtStrategy -->
<g id="node3" class="node">
<title>JwtStrategy</title>
<ellipse fill="#fdb462" stroke="black" cx="511" cy="-104" rx="56.76" ry="18"/>
<text text-anchor="middle" x="511" y="-99.8" font-family="Times,serif" font-size="14.00">JwtStrategy</text>
</g>
<!-- JwtStrategy&#45;&gt;StatelessModule -->
<g id="edge2" class="edge">
<title>JwtStrategy&#45;&gt;StatelessModule</title>
<path fill="none" stroke="black" d="M511,-122.11C511,-141.34 511,-169 511,-169 511,-169 356.13,-169 356.13,-169"/>
<polygon fill="black" stroke="black" points="356.13,-165.5 346.13,-169 356.13,-172.5 356.13,-165.5"/>
</g>
<!-- LocalStrategy -->
<g id="node4" class="node">
<title>LocalStrategy</title>
<ellipse fill="#fdb462" stroke="black" cx="371" cy="-104" rx="65.41" ry="18"/>
<text text-anchor="middle" x="371" y="-99.8" font-family="Times,serif" font-size="14.00">LocalStrategy</text>
</g>
<!-- LocalStrategy&#45;&gt;StatelessModule -->
<g id="edge3" class="edge">
<title>LocalStrategy&#45;&gt;StatelessModule</title>
<path fill="none" stroke="black" d="M326.03,-117.15C326.03,-117.15 326.03,-140.69 326.03,-140.69"/>
<polygon fill="black" stroke="black" points="322.53,-140.69 326.03,-150.69 329.53,-140.69 322.53,-140.69"/>
</g>
<!-- StatelessService -->
<g id="node5" class="node">
<title>StatelessService</title>
<ellipse fill="#fdb462" stroke="black" cx="214" cy="-104" rx="73.57" ry="18"/>
<text text-anchor="middle" x="214" y="-99.8" font-family="Times,serif" font-size="14.00">StatelessService</text>
</g>
<!-- StatelessService&#45;&gt;StatelessModule -->
<g id="edge4" class="edge">
<title>StatelessService&#45;&gt;StatelessModule</title>
<path fill="none" stroke="black" d="M262.76,-117.78C262.76,-117.78 262.76,-140.55 262.76,-140.55"/>
<polygon fill="black" stroke="black" points="259.26,-140.55 262.76,-150.55 266.26,-140.55 259.26,-140.55"/>
</g>
</g>
</svg>
